<?xml version="1.0" encoding="UTF-8" standalone="no"?>
<!-- Created with Inkscape (http://www.inkscape.org/) -->
<svg id="svg8" xmlns:rdf="http://www.w3.org/1999/02/22-rdf-syntax-ns#" xmlns="http://www.w3.org/2000/svg" height="270" width="1280" version="1.1" xmlns:cc="http://creativecommons.org/ns#" xmlns:dc="http://purl.org/dc/elements/1.1/" viewBox="0 0 338.66667 71.437498">
 <metadata id="metadata5">
  <rdf:RDF>
   <cc:Work rdf:about="">
    <dc:format>image/svg+xml</dc:format>
    <dc:type rdf:resource="http://purl.org/dc/dcmitype/StillImage"/>
    <dc:title/>
   </cc:Work>
  </rdf:RDF>
 </metadata>
 <g id="layer1" transform="translate(-45.541 -93.335)">
  <g id="g3879" transform="matrix(.55349 0 0 .55349 30.792 39.792)">
   <path id="path3870" d="m376.68 225.34-76.117 131.84 83.021 143.8 39.949-68.635 112.29 68.635z" transform="matrix(.36532 0 0 .36532 -35.513 28.343)" fill="#009aff"/>
   <path id="path3906" d="m300.56 357.18-83.303 144.08h166.49l-0.16211-0.2793 39.949-68.635z" transform="matrix(.36532 0 0 .36532 -35.513 28.343)" fill="#006eff"/>
   <path id="path3874" d="m104.62 211.36 14.59-25.07-44.921-27.46z" fill="#005498"/>
  </g>
  <g id="text3889" aria-label="Alter" transform="matrix(.76422 0 0 .76422 9.434 20.357)" stroke-width="1.6618" fill="#fff">
   <path id="path3914" style="font-variant-ligatures:normal;font-variant-numeric:normal;font-variant-caps:normal;font-feature-settings:normal" d="m175.79 120.42 22.265 47.744h-5.1282l-7.4975-15.709h-20.578l-7.4651 15.709h-5.3229l22.557-47.744zm-0.58422 10.127-8.2116 17.299h16.326z"/>
   <path id="path3916" style="font-variant-ligatures:normal;font-variant-numeric:normal;font-variant-caps:normal;font-feature-settings:normal" d="m204.06 119.22h4.544v48.945h-4.544z"/>
   <path id="path3918" style="font-variant-ligatures:normal;font-variant-numeric:normal;font-variant-caps:normal;font-feature-settings:normal" d="m222.07 119.74h4.5764v13.113h7.2054v3.8948h-7.2054v31.418h-4.5764v-31.418h-6.1992v-3.8948h6.1992z"/>
   <path id="path3920" style="font-variant-ligatures:normal;font-variant-numeric:normal;font-variant-caps:normal;font-feature-settings:normal" d="m270.56 156.45 3.8299 2.0123q-1.8825 3.7001-4.3492 5.972-2.4667 2.272-5.5501 3.4729-3.0834 1.1684-6.9782 1.1684-8.6335 0-13.502-5.6475-4.8685-5.6799-4.8685-12.82 0-6.7186 4.122-11.977 5.2255-6.6861 13.989-6.6861 9.023 0 14.411 6.8484 3.8299 4.8361 3.8948 12.074h-31.743q0.12983 6.1668 3.9273 10.127 3.7974 3.9273 9.38 3.9273 2.6939 0 5.2255-0.94125 2.5641-0.94125 4.3492-2.4992 1.7851-1.5579 3.8624-5.0308zm0-9.5098q-0.90879-3.6352-2.6614-5.8098-1.7202-2.1746-4.5764-3.5053t-6.0045-1.3307q-5.1931 0-8.9256 3.343-2.7264 2.4343-4.122 7.3028z"/>
   <path id="path3922" style="font-variant-ligatures:normal;font-variant-numeric:normal;font-variant-caps:normal;font-feature-settings:normal" d="m282.34 132.86h4.6413v5.1606q2.0772-3.0509 4.3817-4.544 2.3044-1.5255 4.8036-1.5255 1.8825 0 4.0246 1.2009l-2.3694 3.8299q-1.4281-0.61667-2.4018-0.61667-2.272 0-4.3817 1.8825-2.1097 1.85-3.2132 5.7773-0.84388 3.0185-0.84388 12.204v11.944h-4.6413z"/>
  </g>
  <text id="text3893" style="word-spacing:0px;letter-spacing:0px" line-height="1.25" xml:space="preserve" font-size="50.799px" y="148.08362" x="248.61476" font-family="sans-serif" fill="#ffffff"><tspan id="tspan3891" style="font-variant-numeric:normal;font-variant-ligatures:normal;font-variant-caps:normal;font-feature-settings:normal" font-family="&apos;Century Gothic&apos;" font-size="50.799px" y="148.08362" x="248.61476" stroke-width="1.27" fill="#ffffff">Linux</tspan></text>
 </g>
</svg>
