
<svg version="1.1" id="Capa_1" xmlns="http://www.w3.org/2000/svg" xmlns:xlink="http://www.w3.org/1999/xlink" x="0px" y="0px"
	viewBox="0 0 297.613 297.613" style="enable-background:new 0 0 297.613 297.613;" xml:space="preserve">
	<g>
		<path d="M148.807,50.869c-4.971,0-9,4.029-9,9v46.438c0,4.971,4.029,9,9,9s9-4.029,9-9V59.869
			C157.807,54.898,153.777,50.869,148.807,50.869z"/>
		<path d="M178.859,127.754c2.303,0,4.606-0.879,6.364-2.636L212.17,98.17c3.515-3.515,3.515-9.213,0-12.728
		c-3.515-3.515-9.213-3.515-12.728,0l-26.948,26.948c-3.515,3.515-3.515,9.213,0,12.728
		C174.252,126.875,176.556,127.754,178.859,127.754z"/>
		<path d="M237.744,139.807h-46.438c-4.971,0-9,4.029-9,9s4.029,9,9,9h46.438c4.971,0,9-4.029,9-9S242.715,139.807,237.744,139.807z"
		/>
		<path d="M185.22,172.493c-3.515-3.515-9.213-3.515-12.728,0c-3.515,3.515-3.515,9.213,0,12.728l26.95,26.95
		c1.757,1.757,4.061,2.636,6.364,2.636s4.606-0.879,6.364-2.636c3.515-3.515,3.515-9.213,0-12.728L185.22,172.493z"/>
		<path d="M148.807,182.307c-4.971,0-9,4.029-9,9v46.438c0,4.971,4.029,9,9,9s9-4.029,9-9v-46.438
		C157.807,186.336,153.777,182.307,148.807,182.307z"/>
		<path d="M112.391,172.495l-26.948,26.948c-3.515,3.515-3.515,9.213,0,12.728c1.757,1.757,4.061,2.636,6.364,2.636
		s4.606-0.879,6.364-2.636l26.948-26.948c3.515-3.515,3.515-9.213,0-12.728C121.604,168.98,115.905,168.98,112.391,172.495z"/>
		<path d="M115.307,148.807c0-4.971-4.029-9-9-9H59.869c-4.971,0-9,4.029-9,9s4.029,9,9,9h46.438
		C111.277,157.807,115.307,153.777,115.307,148.807z"/>
		<path d="M98.17,85.443c-3.515-3.515-9.213-3.515-12.728,0c-3.515,3.515-3.515,9.213,0,12.728l26.95,26.95
		c1.757,1.757,4.061,2.636,6.364,2.636s4.606-0.879,6.364-2.636c3.515-3.515,3.515-9.213,0-12.728L98.17,85.443z"/>
		<path d="M148.807,0C66.754,0,0,66.754,0,148.807s66.754,148.807,148.807,148.807s148.807-66.754,148.807-148.807
		S230.859,0,148.807,0z M148.807,279.613C76.68,279.613,18,220.934,18,148.807S76.68,18,148.807,18s130.807,58.68,130.807,130.807
		S220.934,279.613,148.807,279.613z"/>
	</g>
</svg>
