
<svg height="40px" width="40px" viewBox="0 0 1000 1000" >
  <g>
    <path d="M506,984.1c-98.1,0-192.5-29.2-273.1-84.4C154.1,845.9,93.6,770.9,
      57.6,682.9c-9.9-24.3-17.9-49.6-23.7-75.2c-3.2-13.9,5.5-27.7,
      19.4-30.9c13.9-3.2,27.7,5.5,30.9,19.4c5.2,22.8,12.3,45.4,21.2,67.1C137.5,
      742,191.6,809,262,857.2c72,49.3,156.4,75.3,244,75.3c238.5,0,432.5-194,
      432.5-432.5c0-238.5-194-432.5-432.5-432.5c-87.6,0-172,26-244,75.3C191.7,191,
      137.5,257.9,105.4,336.5C100,349.7,85,356,71.8,
      350.7c-13.2-5.4-19.5-20.4-14.1-33.6c35.9-88,96.5-162.9,
      175.2-216.8c80.6-55.2,175-84.3,273.1-84.3c129.3,0,250.8,50.4,
      342.3,141.8C939.6,249.1,990,370.7,990,500c0,129.3-50.4,250.9-141.8,
      342.3C756.8,933.7,635.2,984.1,506,984.1z"/>
      <path d="M82.3,352.6c-10.5,0-20.3-6.5-24.1-16.8L11.6,211.6c-5-13.3,1.8-28.2,
        15.1-33.2c13.3-5,28.2,1.8,33.2,15.1l38.5,102.8l106.2-26.1c13.8-3.4,27.8,
        5.1,31.2,18.9c3.4,13.8-5.1,27.8-18.9,31.2L88.4,351.8C86.4,352.3,84.3,
        352.6,82.3,352.6z"/>
    </g>
</svg>
