<?xml version="1.0" encoding="utf-8"?>
<!-- Generator: Adobe Illustrator 16.0.0, SVG Export Plug-In . SVG Version: 6.00 Build 0)  -->
<!DOCTYPE svg PUBLIC "-//W3C//DTD SVG 1.1 Basic//EN" "http://www.w3.org/Graphics/SVG/1.1/DTD/svg11-basic.dtd">
<svg version="1.1" baseProfile="basic" id="ubuntu__x5F__white"
	 xmlns="http://www.w3.org/2000/svg" xmlns:xlink="http://www.w3.org/1999/xlink" x="0px" y="0px" width="353.685px"
	 height="79.43px" viewBox="418.433 357.135 353.685 79.43" xml:space="preserve">
<g>
	<g>
		<g>
			<path fill="#FFFFFF" d="M460.767,433.844c-2.152,0.538-4.99,1.109-8.518,1.714c-3.527,0.604-7.609,0.905-12.247,0.905
				c-4.032,0-7.426-0.588-10.181-1.762c-2.755-1.175-4.973-2.839-6.652-4.99c-1.68-2.151-2.89-4.688-3.629-7.61
				c-0.74-2.923-1.108-6.163-1.108-9.727v-29.432h9.374v27.416c0,6.385,1.008,10.955,3.024,13.708
				c2.016,2.756,5.409,4.133,10.18,4.133c1.008,0,2.048-0.034,3.125-0.103c1.074-0.065,2.082-0.15,3.023-0.251
				c0.94-0.101,1.796-0.201,2.57-0.303c0.771-0.101,1.325-0.218,1.663-0.352v-44.25h9.375L460.767,433.844L460.767,433.844z"/>
			<path fill="#FFFFFF" d="M483.646,385.261c1.142-0.739,2.873-1.512,5.191-2.318c2.318-0.807,4.99-1.209,8.014-1.209
				c3.762,0,7.106,0.672,10.029,2.015c2.923,1.345,5.393,3.226,7.409,5.646c2.016,2.418,3.544,5.309,4.585,8.668
				c1.041,3.36,1.563,7.055,1.563,11.086c0,4.234-0.623,8.049-1.865,11.441c-1.245,3.394-3.009,6.265-5.292,8.617
				c-2.285,2.354-5.039,4.169-8.266,5.443c-3.225,1.275-6.854,1.915-10.886,1.915c-4.368,0-8.231-0.302-11.591-0.905
				c-3.361-0.605-6.116-1.21-8.266-1.814V358.75l9.374-1.612L483.646,385.261L483.646,385.261z M483.646,427.192
				c0.94,0.269,2.267,0.521,3.981,0.755c1.713,0.236,3.846,0.354,6.401,0.354c5.04,0,9.071-1.664,12.096-4.989
				c3.023-3.327,4.536-8.047,4.536-14.163c0-2.685-0.27-5.205-0.807-7.559c-0.539-2.352-1.411-4.384-2.621-6.098
				c-1.21-1.714-2.772-3.058-4.687-4.033c-1.915-0.973-4.218-1.46-6.904-1.46c-2.555,0-4.906,0.438-7.056,1.311
				c-2.152,0.874-3.798,1.781-4.939,2.72V427.192z"/>
			<path fill="#FFFFFF" d="M572.749,433.844c-2.151,0.538-4.99,1.109-8.518,1.714s-7.61,0.905-12.247,0.905
				c-4.033,0-7.427-0.588-10.181-1.762c-2.756-1.175-4.974-2.839-6.652-4.99c-1.681-2.151-2.89-4.688-3.629-7.61
				c-0.739-2.923-1.109-6.163-1.109-9.727v-29.432h9.375v27.416c0,6.385,1.007,10.955,3.024,13.708
				c2.015,2.756,5.408,4.133,10.18,4.133c1.007,0,2.049-0.034,3.124-0.103c1.074-0.065,2.083-0.15,3.024-0.251
				c0.94-0.101,1.797-0.201,2.57-0.303c0.771-0.101,1.326-0.218,1.664-0.352v-44.25h9.374V433.844L572.749,433.844z"/>
			<path fill="#FFFFFF" d="M586.254,384.454c2.149-0.537,5.004-1.109,8.568-1.714c3.561-0.604,7.661-0.906,12.297-0.906
				c4.167,0,7.626,0.589,10.382,1.763c2.754,1.178,4.955,2.822,6.602,4.939c1.646,2.117,2.806,4.655,3.479,7.61
				c0.671,2.958,1.009,6.217,1.009,9.778v29.43h-9.375v-27.416c0-3.224-0.219-5.979-0.656-8.265
				c-0.437-2.283-1.157-4.132-2.166-5.542c-1.009-1.412-2.353-2.436-4.032-3.075c-1.682-0.639-3.765-0.958-6.249-0.958
				c-1.008,0-2.052,0.035-3.125,0.101c-1.075,0.067-2.101,0.152-3.073,0.252c-0.978,0.101-1.851,0.219-2.621,0.353
				c-0.773,0.135-1.329,0.236-1.664,0.301v44.249h-9.373L586.254,384.454L586.254,384.454z"/>
			<path fill="#FFFFFF" d="M650.259,382.943h19.857v7.862h-19.857v24.189c0,2.622,0.2,4.788,0.605,6.501
				c0.403,1.716,1.007,3.06,1.813,4.032c0.808,0.976,1.814,1.665,3.023,2.066c1.21,0.403,2.621,0.605,4.234,0.605
				c2.889,0,5.174-0.318,6.854-0.958c1.679-0.638,2.822-1.092,3.428-1.359l2.015,7.661c-0.941,0.47-2.604,1.074-4.989,1.812
				c-2.385,0.739-5.09,1.109-8.114,1.109c-3.562,0-6.501-0.453-8.818-1.36c-2.319-0.908-4.185-2.268-5.595-4.081
				c-1.411-1.816-2.403-4.049-2.974-6.703c-0.571-2.654-0.857-5.729-0.857-9.224v-46.769l9.375-1.612V382.943L650.259,382.943z"/>
			<path fill="#FFFFFF" d="M721.118,433.844c-2.152,0.538-4.99,1.109-8.518,1.714c-3.528,0.604-7.609,0.905-12.246,0.905
				c-4.033,0-7.427-0.588-10.182-1.762c-2.755-1.175-4.974-2.839-6.654-4.99c-1.679-2.151-2.889-4.688-3.628-7.61
				c-0.74-2.923-1.108-6.163-1.108-9.727v-29.432h9.375v27.416c0,6.385,1.008,10.955,3.022,13.708
				c2.018,2.756,5.409,4.133,10.182,4.133c1.008,0,2.049-0.034,3.125-0.103c1.073-0.065,2.08-0.15,3.022-0.251
				s1.798-0.201,2.571-0.303c0.771-0.101,1.326-0.218,1.663-0.352v-44.25h9.375V433.844z"/>
		</g>
		<g>
			<circle fill="#FFFFFF" cx="750.949" cy="378.302" r="21.167"/>
			<path d="M739.965,378.302c0,1.503-1.219,2.722-2.724,2.722c-1.502,0-2.72-1.218-2.72-2.722c0-1.503,1.218-2.721,2.72-2.721
				C738.745,375.581,739.965,376.799,739.965,378.302z M755.448,391.535c0.751,1.301,2.415,1.747,3.717,0.996
				c1.302-0.751,1.747-2.416,0.996-3.717s-2.415-1.747-3.717-0.996S754.696,390.234,755.448,391.535z M760.161,367.792
				c0.751-1.302,0.307-2.966-0.996-3.717c-1.301-0.751-2.966-0.306-3.717,0.996c-0.752,1.302-0.306,2.966,0.996,3.717
				C757.746,369.54,759.41,369.093,760.161,367.792z M750.95,370.542c4.056,0,7.383,3.108,7.73,7.073l3.938-0.062
				c-0.187-2.947-1.465-5.596-3.435-7.55c-1.042,0.402-2.252,0.348-3.295-0.255c-1.045-0.603-1.697-1.625-1.87-2.73
				c-0.979-0.265-2.008-0.408-3.069-0.408c-1.862,0-3.623,0.436-5.187,1.211l1.917,3.441
				C748.674,370.801,749.782,370.542,750.95,370.542z M743.188,378.302c0-2.625,1.305-4.946,3.3-6.351l-2.022-3.38
				c-2.342,1.564-4.087,3.95-4.822,6.748c0.87,0.702,1.429,1.777,1.429,2.983c0,1.207-0.558,2.282-1.429,2.984
				c0.735,2.797,2.48,5.184,4.822,6.748l2.022-3.38C744.493,383.25,743.188,380.929,743.188,378.302z M750.95,386.064
				c-1.168,0-2.276-0.259-3.271-0.721l-1.916,3.441c1.563,0.775,3.323,1.21,5.186,1.21c1.062,0,2.092-0.142,3.07-0.408
				c0.172-1.106,0.825-2.127,1.869-2.729c1.043-0.603,2.253-0.658,3.296-0.255c1.97-1.956,3.247-4.604,3.435-7.551l-3.939-0.062
				C758.333,382.955,755.006,386.064,750.95,386.064z"/>
		</g>
	</g>
</g>
</svg>
